<svg xmlns="http://www.w3.org/2000/svg" width="24" height="24" viewBox="0 0 24 24" fill="currentColor">
  <g clip-path="url(#clip0_37_68612)">
    <path d="M12 8.99999C12 8.73478 12.1054 8.48042 12.2929 8.29289C12.4804 8.10535 12.7348 7.99999 13 7.99999C13.2652 7.99999 13.5196 8.10535 13.7071 8.29289C13.8946 8.48042 14 8.73478 14 8.99999C14 9.26521 13.8946 9.51956 13.7071 9.7071C13.5196 9.89464 13.2652 9.99999 13 9.99999C12.7348 9.99999 12.4804 9.89464 12.2929 9.7071C12.1054 9.51956 12 9.26521 12 8.99999ZM23 4.99999V19C22.9984 20.3256 22.4711 21.5964 21.5338 22.5338C20.5964 23.4711 19.3256 23.9984 18 24H8C7.02823 23.9987 6.0779 23.7143 5.26521 23.1815C4.45252 22.6487 3.81271 21.8906 3.424 21H2C1.73478 21 1.48043 20.8946 1.29289 20.7071C1.10536 20.5196 1 20.2652 1 20C1 19.7348 1.10536 19.4804 1.29289 19.2929C1.48043 19.1053 1.73478 19 2 19H3V17H2C1.73478 17 1.48043 16.8946 1.29289 16.7071C1.10536 16.5196 1 16.2652 1 16C1 15.7348 1.10536 15.4804 1.29289 15.2929C1.48043 15.1053 1.73478 15 2 15H3V13H2C1.73478 13 1.48043 12.8946 1.29289 12.7071C1.10536 12.5196 1 12.2652 1 12C1 11.7348 1.10536 11.4804 1.29289 11.2929C1.48043 11.1053 1.73478 11 2 11H3V8.99999H2C1.73478 8.99999 1.48043 8.89464 1.29289 8.7071C1.10536 8.51956 1 8.26521 1 7.99999C1 7.73478 1.10536 7.48042 1.29289 7.29289C1.48043 7.10535 1.73478 6.99999 2 6.99999H3V4.99999H2C1.73478 4.99999 1.48043 4.89464 1.29289 4.7071C1.10536 4.51956 1 4.26521 1 3.99999C1 3.73478 1.10536 3.48042 1.29289 3.29289C1.48043 3.10535 1.73478 2.99999 2 2.99999H3.424C3.81271 2.10935 4.45252 1.35129 5.26521 0.818491C6.0779 0.285698 7.02823 0.00127075 8 -7.62939e-06L18 -7.62939e-06C19.3256 0.00158023 20.5964 0.528874 21.5338 1.46621C22.4711 2.40355 22.9984 3.6744 23 4.99999ZM10 8.99999C10 9.79564 10.3161 10.5587 10.8787 11.1213C11.4413 11.6839 12.2044 12 13 12C13.7956 12 14.5587 11.6839 15.1213 11.1213C15.6839 10.5587 16 9.79564 16 8.99999C16 8.20434 15.6839 7.44128 15.1213 6.87867C14.5587 6.31606 13.7956 5.99999 13 5.99999C12.2044 5.99999 11.4413 6.31606 10.8787 6.87867C10.3161 7.44128 10 8.20434 10 8.99999ZM18 18C17.789 11.392 8.209 11.394 8 18C8 18.2652 8.10536 18.5196 8.29289 18.7071C8.48043 18.8946 8.73478 19 9 19C9.26522 19 9.51957 18.8946 9.70711 18.7071C9.89464 18.5196 10 18.2652 10 18C10 17.2043 10.3161 16.4413 10.8787 15.8787C11.4413 15.3161 12.2044 15 13 15C13.7956 15 14.5587 15.3161 15.1213 15.8787C15.6839 16.4413 16 17.2043 16 18C16 18.2652 16.1054 18.5196 16.2929 18.7071C16.4804 18.8946 16.7348 19 17 19C17.2652 19 17.5196 18.8946 17.7071 18.7071C17.8946 18.5196 18 18.2652 18 18Z" />
  </g>
  <defs>
    <clipPath id="clip0_37_68612">
      <rect width="24" height="24" />
    </clipPath>
  </defs>
</svg>