<svg xmlns="http://www.w3.org/2000/svg" width="24" height="24" viewBox="0 0 24 24" fill="currentColor">
  <g clip-path="url(#clip0_37_68331)">
    <path d="M22.9999 16.0003C22.7346 16.0003 22.4803 16.1057 22.2928 16.2932C22.1052 16.4807 21.9999 16.7351 21.9999 17.0003V19.0003C21.9999 19.7959 21.6838 20.559 21.1212 21.1216C20.5586 21.6842 19.7955 22.0003 18.9999 22.0003H16.9999C16.7347 22.0003 16.4803 22.1056 16.2928 22.2932C16.1052 22.4807 15.9999 22.7351 15.9999 23.0003C15.9999 23.2655 16.1052 23.5199 16.2928 23.7074C16.4803 23.8949 16.7347 24.0003 16.9999 24.0003H18.9999C20.3255 23.9987 21.5963 23.4714 22.5336 22.5341C23.471 21.5967 23.9983 20.3259 23.9999 19.0003V17.0003C23.9999 16.7351 23.8945 16.4807 23.707 16.2932C23.5194 16.1057 23.2651 16.0003 22.9999 16.0003Z"/>
    <path d="M1 8C1.26522 8 1.51957 7.89464 1.70711 7.70711C1.89464 7.51957 2 7.26522 2 7V5C2 4.20435 2.31607 3.44129 2.87868 2.87868C3.44129 2.31607 4.20435 2 5 2H7C7.26522 2 7.51957 1.89464 7.70711 1.70711C7.89464 1.51957 8 1.26522 8 1C8 0.734784 7.89464 0.48043 7.70711 0.292893C7.51957 0.105357 7.26522 0 7 0L5 0C3.67441 0.00158786 2.40356 0.528882 1.46622 1.46622C0.528882 2.40356 0.00158786 3.67441 0 5L0 7C0 7.26522 0.105357 7.51957 0.292893 7.70711C0.48043 7.89464 0.734784 8 1 8Z"/>
    <path d="M7 22.0003H5C4.20435 22.0003 3.44129 21.6842 2.87868 21.1216C2.31607 20.559 2 19.7959 2 19.0003V17.0003C2 16.7351 1.89464 16.4807 1.70711 16.2932C1.51957 16.1057 1.26522 16.0003 1 16.0003C0.734784 16.0003 0.48043 16.1057 0.292893 16.2932C0.105357 16.4807 0 16.7351 0 17.0003L0 19.0003C0.00158786 20.3259 0.528882 21.5967 1.46622 22.5341C2.40356 23.4714 3.67441 23.9987 5 24.0003H7C7.26522 24.0003 7.51957 23.8949 7.70711 23.7074C7.89464 23.5199 8 23.2655 8 23.0003C8 22.7351 7.89464 22.4807 7.70711 22.2932C7.51957 22.1056 7.26522 22.0003 7 22.0003Z" />
    <path d="M18.9999 0H16.9999C16.7347 0 16.4803 0.105357 16.2928 0.292893C16.1052 0.48043 15.9999 0.734784 15.9999 1C15.9999 1.26522 16.1052 1.51957 16.2928 1.70711C16.4803 1.89464 16.7347 2 16.9999 2H18.9999C19.7955 2 20.5586 2.31607 21.1212 2.87868C21.6838 3.44129 21.9999 4.20435 21.9999 5V7C21.9999 7.26522 22.1052 7.51957 22.2928 7.70711C22.4803 7.89464 22.7346 8 22.9999 8C23.2651 8 23.5194 7.89464 23.707 7.70711C23.8945 7.51957 23.9999 7.26522 23.9999 7V5C23.9983 3.67441 23.471 2.40356 22.5336 1.46622C21.5963 0.528882 20.3255 0.00158786 18.9999 0V0Z" />
    <path d="M12.0001 11C14.2092 11 16.0001 9.20914 16.0001 7C16.0001 4.79086 14.2092 3 12.0001 3C9.79098 3 8.00012 4.79086 8.00012 7C8.00012 9.20914 9.79098 11 12.0001 11Z" />
    <path d="M11.0001 13.0003C9.40931 13.0019 7.88411 13.6345 6.75924 14.7594C5.63436 15.8843 5.00171 17.4095 5.00012 19.0003C5.00012 19.2655 5.10548 19.5199 5.29302 19.7074C5.48055 19.8949 5.73491 20.0003 6.00012 20.0003H18.0001C18.2653 20.0003 18.5197 19.8949 18.7072 19.7074C18.8948 19.5199 19.0001 19.2655 19.0001 19.0003C18.9985 17.4095 18.3659 15.8843 17.241 14.7594C16.1161 13.6345 14.5909 13.0019 13.0001 13.0003H11.0001Z"/>
  </g>
  <defs>
    <clipPath id="clip0_37_68331">
      <rect width="24" height="24"/>
    </clipPath>
  </defs>
</svg>