<svg xmlns="http://www.w3.org/2000/svg" width="24" height="24" viewBox="0 0 24 24" fill="currentColor">
  <path d="M19.0612 7.85399C18.9219 7.7146 18.7565 7.60402 18.5745 7.52858C18.3924 7.45314 18.1973 7.41431 18.0002 7.41431C17.8032 7.41431 17.6081 7.45314 17.426 7.52858C17.2439 7.60402 17.0785 7.7146 16.9392 7.85399L12.3532 12.439C12.2595 12.5327 12.1323 12.5854 11.9997 12.5854C11.8672 12.5854 11.74 12.5327 11.6462 12.439L7.06125 7.85399C6.77999 7.57259 6.39846 7.41445 6.0006 7.41436C5.60274 7.41427 5.22114 7.57222 4.93975 7.85349C4.65835 8.13475 4.50022 8.51627 4.50012 8.91413C4.50003 9.31199 4.65799 9.69359 4.93925 9.97499L9.52525 14.561C9.85026 14.886 10.2361 15.1439 10.6608 15.3198C11.0854 15.4957 11.5406 15.5862 12.0002 15.5862C12.4599 15.5862 12.9151 15.4957 13.3397 15.3198C13.7644 15.1439 14.1502 14.886 14.4752 14.561L19.0612 9.97499C19.3425 9.6937 19.5004 9.31223 19.5004 8.91449C19.5004 8.51674 19.3425 8.13528 19.0612 7.85399Z" />
</svg>