<svg xmlns="http://www.w3.org/2000/svg" width="24" height="20" viewBox="0 0 24 20" fill="currentColor">
  <path d="M11.9998 13.9984C14.2081 13.9984 15.9983 12.2082 15.9983 9.99993C15.9983 7.79162 14.2081 6.00143 11.9998 6.00143C9.79153 6.00143 8.00134 7.79162 8.00134 9.99993C8.00134 12.2082 9.79153 13.9984 11.9998 13.9984Z" />
  <path d="M23.2668 7.42008C21.7164 4.89501 18.1897 0.658569 12 0.658569C5.81027 0.658569 2.28358 4.89501 0.733158 7.42008C-0.244386 9.00119 -0.244386 10.999 0.733158 12.5802C2.28358 15.1052 5.81027 19.3417 12 19.3417C18.1897 19.3417 21.7164 15.1052 23.2668 12.5802C24.2443 10.999 24.2443 9.00119 23.2668 7.42008ZM12 15.9979C8.68752 15.9979 6.0022 13.3126 6.0022 10.0001C6.0022 6.68764 8.68752 4.00233 12 4.00233C15.3124 4.00233 17.9978 6.68764 17.9978 10.0001C17.9944 13.3112 15.3111 15.9945 12 15.9979Z"/>
</svg>