<svg xmlns="http://www.w3.org/2000/svg" width="24" height="22" viewBox="0 0 24 22" fill="currentColor">
  <path d="M23.2668 8.40756C22.3644 6.92981 21.2261 5.60983 19.8971 4.50001L22.696 1.70107C23.0796 1.30395 23.0685 0.671137 22.6714 0.287607C22.284 -0.086551 21.6699 -0.086551 21.2825 0.287607L18.2386 3.33546C16.3517 2.21472 14.1946 1.63055 12 1.6461C5.81126 1.6461 2.28457 5.88255 0.733158 8.40761C-0.244386 9.98872 -0.244386 11.9865 0.733158 13.5677C1.63559 15.0455 2.7739 16.3654 4.10292 17.4753L1.30398 20.2742C0.906859 20.6577 0.895847 21.2906 1.27938 21.6877C1.66291 22.0848 2.29577 22.0958 2.69284 21.7123C2.70118 21.7042 2.70938 21.696 2.71744 21.6877L5.76829 18.6368C7.65285 19.7574 9.80746 20.3425 12 20.3292C18.1887 20.3292 21.7154 16.0927 23.2668 13.5677C24.2444 11.9865 24.2444 9.98872 23.2668 8.40756ZM6.00225 10.9876C5.99658 7.68066 8.67276 4.99525 11.9797 4.98958C13.231 4.98743 14.4515 5.37733 15.4697 6.10446L14.0183 7.55592C13.4089 7.18847 12.7116 6.9926 12 6.98914C9.79172 6.98914 8.00152 8.77933 8.00152 10.9876C8.00499 11.6992 8.20086 12.3966 8.56831 13.0059L7.11685 14.4573C6.39206 13.4456 6.0023 12.2322 6.00225 10.9876ZM12 16.9854C10.7554 16.9854 9.54211 16.5956 8.53031 15.8708L9.98177 14.4193C10.5911 14.7868 11.2885 14.9827 12 14.9861C14.2083 14.9861 15.9985 13.1959 15.9985 10.9876C15.9951 10.2761 15.7992 9.57872 15.4317 8.96938L16.8832 7.51792C18.805 10.2091 18.1812 13.9488 15.49 15.8705C14.4718 16.5977 13.2513 16.9876 12 16.9854Z"/>
</svg>