<svg xmlns="http://www.w3.org/2000/svg" width="24" height="24" viewBox="0 0 24 24" fill="currentColor">
  <g clip-path="url(#clip0_37_68346)">
    <path d="M12 0.0424805C9.35398 0.0453916 6.81712 1.09776 4.94598 2.96871C3.07484 4.83966 2.02222 7.37642 2.01904 10.0225C2.01904 12.5925 4.00904 16.6145 7.93404 21.9765C8.4013 22.6166 9.0131 23.1374 9.71964 23.4964C10.4262 23.8554 11.2075 24.0425 12 24.0425C12.7926 24.0425 13.5739 23.8554 14.2804 23.4964C14.987 23.1374 15.5988 22.6166 16.066 21.9765C19.991 16.6145 21.981 12.5925 21.981 10.0225C21.9779 7.37642 20.9252 4.83966 19.0541 2.96871C17.183 1.09776 14.6461 0.0453916 12 0.0424805ZM12 14.0005C11.2089 14.0005 10.4356 13.7659 9.77776 13.3264C9.11997 12.8868 8.60728 12.2621 8.30452 11.5312C8.00177 10.8003 7.92256 9.99605 8.0769 9.22012C8.23124 8.4442 8.61221 7.73146 9.17162 7.17205C9.73103 6.61264 10.4438 6.23168 11.2197 6.07734C11.9956 5.923 12.7999 6.00221 13.5308 6.30496C14.2617 6.60771 14.8864 7.1204 15.3259 7.7782C15.7654 8.436 16 9.20936 16 10.0005C16 11.0613 15.5786 12.0788 14.8285 12.8289C14.0783 13.5791 13.0609 14.0005 12 14.0005Z"/>
  </g>
  <defs>
    <clipPath id="clip0_37_68346">
      <rect width="24" height="24" />
    </clipPath>
  </defs>
</svg>