<svg xmlns="http://www.w3.org/2000/svg" width="24" height="24" viewBox="0 0 24 24" fill="currentColor">
  <g clip-path="url(#clip0_37_68673)">
    <path d="M19 0H5C3.67392 0 2.40215 0.526784 1.46447 1.46447C0.526784 2.40215 0 3.67392 0 5H0C0 5.79565 0.31607 6.55871 0.87868 7.12132C1.44129 7.68393 2.20435 8 3 8H21C21.7605 8.00929 22.4956 7.72644 23.0538 7.20977C23.612 6.6931 23.9506 5.98198 24 5.223C24.0294 4.54804 23.9219 3.87411 23.6839 3.24183C23.4459 2.60954 23.0823 2.03198 22.6152 1.54395C22.148 1.05593 21.5868 0.66754 20.9655 0.402193C20.3442 0.136846 19.6756 3.37588e-05 19 0V0Z"/>
    <path d="M21.9999 9.99995H1.99988C1.73466 9.99995 1.48031 10.1053 1.29277 10.2928C1.10523 10.4804 0.999878 10.7347 0.999878 11V19C1.00147 20.3256 1.52876 21.5964 2.4661 22.5337C3.40344 23.4711 4.67428 23.9984 5.99988 24H17.9999C19.3255 23.9984 20.5963 23.4711 21.5337 22.5337C22.471 21.5964 22.9983 20.3256 22.9999 19V11C22.9999 10.7347 22.8945 10.4804 22.707 10.2928C22.5194 10.1053 22.2651 9.99995 21.9999 9.99995ZM14.9999 15H8.99988C8.73466 15 8.48031 14.8946 8.29277 14.7071C8.10524 14.5195 7.99988 14.2652 7.99988 14C7.99988 13.7347 8.10524 13.4804 8.29277 13.2928C8.48031 13.1053 8.73466 13 8.99988 13H14.9999C15.2651 13 15.5194 13.1053 15.707 13.2928C15.8945 13.4804 15.9999 13.7347 15.9999 14C15.9999 14.2652 15.8945 14.5195 15.707 14.7071C15.5194 14.8946 15.2651 15 14.9999 15Z"/>
  </g>
  <defs>
    <clipPath id="clip0_37_68673">
      <rect width="24" height="24"/>
    </clipPath>
  </defs>
</svg>